# xmcd
# Track frame offsets:
# 150
# 17584
# 34418
# 50977
# 64869
# 81411
# 99037
# 114430
# 129314
# 143312
# 158885
# 171288
# 187996
# 207691
# 221871
# 239111
# 250993
# 268192
# 285556
# 305111
#
# Disc length: 4232 seconds
# Revision: 0
# Processed by: cddbd v1.5.2PL0 Copyright (c) Steve Scherf et al.
# Submitted via: VisiTrax 2.10.0.248 - For more info visit www.synapsa.com
#
DISCID=33108614
DTITLE=Various Artist - Bundy Country
DYEAR=2007
DGENRE=Country
TTITLE0=Alan Jackson - It's Five O'clock Somewhere
TTITLE1=Trace Atkins - Ladies Love Country Boys
TTITLE2=Adam Brand - Ciggarettes and Whiskey
TTITLE3=Mc Clymonts - Baby's Come Home
TTITLE4=James Blundell - Ring Around The Moon
TTITLE5=Derks Bentley - Every Mile A Memory
TTITLE6=Gretchen Wilson and Merl Haggard - Politicly Uncorrect
TTITLE7=Troy Casser Daley - Dream Out Loud
TTITLE8=Amber Lawrence - Things That Bring Me Down
TTITLE9=Kenny Chesney - Summertime
TTITLE10=Steve Forde - Aussie Philosophy
TTITLE11=Sunny Cowgirls - Cuttin' Up B&S Style
TTITLE12=Travis Collins - Full Tank
TTITLE13=The Flood - Hello Blue Sky
TTITLE14=Adam Harvey - That's What You Call A Friend
TTITLE15=Beccy Cole - A Better Woman
TTITLE16=Matt Scullion - Giddy Up
TTITLE17=Miranda Lambert - New Strings
TTITLE18=Brooks and Dunn - Hillbilly Deluxe
TTITLE19=Johnny Cash - I Walk The Line
EXTD=2007 Rajon Distribution Pty Ltd
EXTT0=
EXTT1=
EXTT2=
EXTT3=
EXTT4=
EXTT5=
EXTT6=
EXTT7=
EXTT8=
EXTT9=
EXTT10=
EXTT11=
EXTT12=
EXTT13=
EXTT14=
EXTT15=
EXTT16=
EXTT17=
EXTT18=
EXTT19=
PLAYORDER=
